<?xml version="1.0" standalone="no"?><!DOCTYPE svg PUBLIC "-//W3C//DTD SVG 1.1//EN" "http://www.w3.org/Graphics/SVG/1.1/DTD/svg11.dtd"><svg class="icon" width="200px" height="200.00px" viewBox="0 0 1024 1024" version="1.1" xmlns="http://www.w3.org/2000/svg"><path d="M800 512c0 274.72-352 393.76-517.6 173.6 187.36 142.08 461.6 9.6 461.6-229.6a286.4 286.4 0 0 0-58.4-173.6A286.88 286.88 0 0 1 800 512z" fill="#2DE0C7" /><path d="M744 456c0 239.04-274.08 371.84-461.6 229.6C140.32 498.24 272.8 224 512 224a286.4 286.4 0 0 1 173.6 58.4A286.4 286.4 0 0 1 744 456z" fill="#93E6D9" /><path d="M510.08 528H368v96a32 32 0 0 0 32 32 48 48 0 0 1 48 48 96 96 0 0 0 96 96h32V593.92A65.76 65.76 0 0 0 510.08 528z" fill="#69CC00" /><path d="M752 224.8a24.32 24.32 0 0 1-39.36 17.6 327.04 327.04 0 0 0-142.4-61.28 96 96 0 0 1 45.12-44 16 16 0 0 0 7.52-20.16A112 112 0 0 1 672 113.28a16 16 0 0 0 10.72 18.72 96 96 0 0 1 69.28 92.8z" fill="#FED370" /><path d="M741.76 266.88a88.96 88.96 0 0 1-19.04 26.08 304 304 0 0 0-161.92-80.96 95.04 95.04 0 0 1 9.44-30.88 332.64 332.64 0 0 1 171.52 85.76z" fill="#FED370" /><path d="M811.84 461.28a304.96 304.96 0 0 0-350.88-248.96 16 16 0 0 0 5.28 32 272 272 0 1 1-75.36 24.64 16 16 0 0 0-13.92-28.96 304 304 0 0 0 157.92 576c-1.44-21.28-2.08-21.28 1.76 0a283.2 283.2 0 0 0 42.88-6.72 304 304 0 0 0 232.32-348z" fill="#35214C" /><path d="M756.64 214.72a16 16 0 0 1 22.72 22.72 16 16 0 0 1-22.72-22.72zM512.8 896a16 16 0 0 1 32-1.44 16 16 0 0 1-32 1.44z m-50.72 12.48a16 16 0 1 1 17.92-13.44c1.6 0-5.6 16.96-17.92 13.76z m115.52-17.92a16 16 0 0 1 12-19.2 16 16 0 0 1 7.04 32 16 16 0 0 1-19.04-12.48z m-181.6 4c-12.64-3.84-12.48-19.84-10.72-19.84a16 16 0 0 1 30.72 9.12c1.76 0.32-6.24 15.2-20 11.04zM640 874.24a16 16 0 0 1 8.8-20.96 16 16 0 0 1 12 29.76 16 16 0 0 1-20.8-8.8z m-307.04-4.32a16 16 0 0 1 14.4-28.64 16 16 0 1 1-14.24 28.64zM704 825.28a16 16 0 1 1 16 27.2 16 16 0 0 1-16-27.2z m-428.96 9.44a16 16 0 0 1-3.36-22.4c7.36-9.92 22.4-6.08 22.4-3.36a16 16 0 0 1-18.56 25.76z m477.44-23.84a16 16 0 0 1 24-21.12 16 16 0 0 1-1.44 22.56 16 16 0 0 1-22.08-1.44z m-528-20.64a16 16 0 1 1 22.56 0 16 16 0 0 1-22.24 0z m572.8-46.72a16 16 0 0 1 24.8 20.16 16 16 0 0 1-24.48-20.16z m-615.52-5.76A16 16 0 0 1 208 720a16 16 0 0 1-4.16 22.08 16 16 0 0 1-21.76-4.32z m656-23.68c-11.04-6.4-8.16-21.92-5.92-21.92a16 16 0 1 1 5.92 21.92zM148.64 679.36a16 16 0 0 1 7.68-21.28 16 16 0 1 1 13.6 28.96 16 16 0 0 1-21.28-7.68z m720-23.04a16 16 0 0 1-9.6-20.48 16 16 0 0 1 30.08 10.72 16 16 0 0 1-20.8 9.44zM125.6 615.68a16 16 0 0 1 11.36-19.52 16 16 0 0 1 8.16 30.88 16 16 0 0 1-19.52-11.36z m761.92-21.44a16 16 0 1 1 5.44-32 16 16 0 1 1-5.44 32zM113.76 549.28a16 16 0 0 1 32-3.04 16 16 0 0 1-32 3.04zM880 513.76a16 16 0 0 1 32 0 16 16 0 0 1-32 0z m-752-14.88a16 16 0 0 1-14.72-17.28 16 16 0 0 1 32 2.56c1.28 0-1.28 14.72-17.28 14.72z m747.2-47.04a16 16 0 1 1 18.24 13.28h-2.56a16 16 0 0 1-15.68-13.28zM135.68 434.4A16 16 0 0 1 144 403.36a16 16 0 0 1 11.68 19.36 16 16 0 0 1-20 11.68z m724.16-42.72a16 16 0 0 1 9.76-20.32 16 16 0 0 1 20.48 9.92c3.36 0 1.12 21.12-16 21.12a16 16 0 0 1-14.24-10.72zM153.92 372.16a16 16 0 0 1-8.16-21.12 16 16 0 0 1 29.28 12.96 16 16 0 0 1-21.12 8.16z m680.48-37.28c-5.44-9.76 2.4-21.6 6.4-21.6a16 16 0 0 1 16 28 16 16 0 0 1-22.4-6.4z m-651.84-20.96a16 16 0 0 1-4.48-22.24 16 16 0 1 1 4.48 22.24zM800 283.2a16 16 0 0 1 2.72-22.56A16 16 0 1 1 800 283.2z m-579.2-21.76a16 16 0 0 1 0-22.72 16 16 0 0 1 23.36 21.92 16 16 0 0 1-23.52 0.8z m46.4-45.44a16 16 0 1 1 22.4 3.04 16 16 0 0 1-22.56-3.04z m52.8-37.12a16 16 0 0 1 6.72-21.6 16 16 0 1 1-6.72 21.6z m58.72-27.52a16 16 0 0 1 10.4-20.16 16 16 0 0 1 10.88 30.4 16 16 0 0 1-20.96-10.24z m62.88-17.28a16 16 0 1 1 18.08 13.6 16 16 0 0 1-18.08-13.6z m80 10.08a16 16 0 0 1-16-16 16 16 0 0 1 32 0c1.6 0-2.56 16-16 16zM587.52 151.52a16 16 0 0 1-16-16 16 16 0 1 1 16 16z" fill="#FD7504" /><path d="M752 326.08a16 16 0 0 0-12.48-6.08c-46.72 0-78.88-5.6-108.32 23.52A80 80 0 0 0 688 480c119.2 0 113.6 1.92 120.16-5.6a16 16 0 0 0 3.68-13.12A304 304 0 0 0 752 326.08zM688 448a48 48 0 0 1-34.08-81.92C672 347.84 690.88 352 731.84 352a276.64 276.64 0 0 1 44.64 96z" fill="#35214C" /><path d="M776.48 448H688a48 48 0 0 1 0-96h43.84a276.64 276.64 0 0 1 44.64 96z" fill="#69CC00" /><path d="M592 672v-48a112 112 0 0 0-112-112h-112a16 16 0 0 0-16 16v88a56 56 0 0 0 56 56 24 24 0 0 1 24 24 119.84 119.84 0 0 0 102.88 118.72 224 224 0 0 0 45.28-6.56 16 16 0 0 0 11.84-16V752a16 16 0 0 0-32 0v27.84c-7.04 1.28-14.56 2.24-22.4 2.88A87.52 87.52 0 0 1 464 696a55.68 55.68 0 0 0-56.48-56A24 24 0 0 1 384 616V544h96a80 80 0 0 1 80 80v48a16 16 0 0 0 32 0z" fill="#35214C" /><path d="M451.84 316C416 280.64 379.36 288 312.96 288a16 16 0 0 0-11.04 4.48 302.72 302.72 0 0 0-92 185.76 16 16 0 0 0 16 17.76h87.2c45.6 45.12 48 52 61.12 46.72S384 528 384 480a32 32 0 0 1 32-32c61.44 0 89.12-78.24 35.84-132zM416 416a64 64 0 0 0-64 64v9.6c-32-32-12.16-25.6-107.68-25.6A272 272 0 0 1 320 320h64c69.28 0 84.96 96 32 96z" fill="#35214C" /><path d="M416 416a64 64 0 0 0-64 64v9.6c-32.8-32-10.88-25.6-107.68-25.6A272 272 0 0 1 320 320c56.8 0 84.96-5.6 109.76 18.56C458.72 368.8 452.32 416 416 416z" fill="#69CC00" /><path d="M692 101.12a16 16 0 0 0-8.96 30.88 96 96 0 0 1 39.68 160.96 304 304 0 0 0-100.8-64c-62.88-24.48-64-7.84-59.68-24.8a92.16 92.16 0 0 1 11.36-28.8c21.6-40.96 58.4-33.28 49.28-58.4a16 16 0 0 0-22.08-8.48A128 128 0 0 0 528 224a16.96 16.96 0 0 0 16 17.92 246.88 246.88 0 0 1 69.12 17.44c88.32 34.88 96 85.44 118.4 68.32a128 128 0 0 0-39.52-226.56z" fill="#35214C" /><path d="M752 224.8a96 96 0 0 1-29.28 68.16 304 304 0 0 0-161.92-80.96 96 96 0 0 1 9.44-30.88 331.04 331.04 0 0 1 142.4 61.28 24.32 24.32 0 0 0 39.36-17.6z" fill="#FDA736" /></svg>