<?xml version="1.0" standalone="no"?><!DOCTYPE svg PUBLIC "-//W3C//DTD SVG 1.1//EN" "http://www.w3.org/Graphics/SVG/1.1/DTD/svg11.dtd"><svg class="icon" width="200px" height="200.00px" viewBox="0 0 1024 1024" version="1.1" xmlns="http://www.w3.org/2000/svg"><path d="M656 160v96l-144-16V144c78.88-16 80 16 144 16z" fill="#FF2E04" /><path d="M656 160v44.48l-60.16-6.72A58.24 58.24 0 0 1 544 139.84c49.6-2.72 57.92 20.16 112 20.16z" fill="#FF5C3C" /><path d="M409.12 874.4c-11.84 28.48-100.64-8.32-88.8-36.8s100.64 8.16 88.8 36.8z" fill="#6163AA" /><path d="M800 608c0 277.6-357.76 394.72-520.96 168.96C142.88 592 273.76 320 512 320a288 288 0 0 1 288 288z" fill="#6163AA" /><path d="M736 544c0 237.92-270.88 369.44-456.96 232.96C142.88 592 273.76 320 512 320a284.64 284.64 0 0 1 168.96 55.04A284.64 284.64 0 0 1 736 544z" fill="#898EC9" /><path d="M496 384V144a16 16 0 0 1 32 0v240a16 16 0 0 1-32 0z" fill="#35214C" /><path d="M515.2 256a16 16 0 0 1-19.2-16V144a16 16 0 0 1 12.8-16c93.92-18.72 73.12 34.56 50.08 29.92a97.92 97.92 0 0 0-30.88 0v64c60.32-5.92 73.92 25.92 112 21.28v-64c-69.44 6.08-51.84-43.2-28-35.04a65.12 65.12 0 0 0 40.16 0A16 16 0 0 1 672 160v96a16 16 0 0 1-12.16 16c-69.76 16.96-71.84-30.88-144.64-16zM736 624a16 16 0 0 1-16-16 32 32 0 0 0-64 0 16 16 0 0 1-16 16c-33.6 0-12.96-80 48-80s81.6 80 48 80zM780.32 519.52c-22.56 0-13.12-38.4-71.2-98.88a16 16 0 0 1 3.84-25.12c41.76-22.72 103.84 43.68 96 92.48a34.72 34.72 0 0 1-28.64 31.52zM600 840C560 840 546.88 784 576 784a16 16 0 0 1 16 16 8 8 0 0 0 16 0 16 16 0 0 1 16-16c28.8 0 16.96 56-24 56z" fill="#35214C" /><path d="M144 336a16 16 0 0 0-16-16 16 16 0 0 1 0-32 16 16 0 0 0 16-16 16 16 0 0 1 32 0 16 16 0 0 0 16 16 16 16 0 0 1 0 32 16 16 0 0 0-16 16 16 16 0 0 1-32 0z" fill="#FD7504" /><path d="M880 560a16 16 0 0 0-16-16 16 16 0 0 1 0-32 16 16 0 0 0 16-16 16 16 0 0 1 32 0 16 16 0 0 0 16 16 16 16 0 0 1 0 32 16 16 0 0 0-16 16 16 16 0 0 1-32 0z" fill="#FED370" /><path d="M144 416a16 16 0 0 1-32 0 16 16 0 0 1 32 0z" fill="#FDA736" /><path d="M128 624a16 16 0 0 1-32 0 16 16 0 0 1 32 0zM672 912a16 16 0 0 1-32 0 16 16 0 0 1 32 0z" fill="#FD8F07" /><path d="M736 160a16 16 0 0 1-32 0 16 16 0 0 1 32 0z" fill="#FDA736" /><path d="M912 368a16 16 0 0 1-32 0 16 16 0 0 1 32 0z" fill="#FD7504" /><path d="M880 736a16 16 0 0 1-32 0 16 16 0 0 1 32 0z" fill="#FDA736" /><path d="M352 256a16 16 0 0 1-32 0 16 16 0 0 1 32 0z" fill="#FD8F07" /><path d="M256 832a16 16 0 0 1-32 0 16 16 0 0 1 32 0z" fill="#FD7504" /><path d="M800 240v-16a16 16 0 0 1 32 0v16a16 16 0 0 1-32 0zM864 288h-16a16 16 0 0 1 0-32h16a16 16 0 0 1 0 32zM784 288h-16a16 16 0 0 1 0-32h16a16 16 0 0 1 0 32zM800 320v-16a16 16 0 0 1 32 0v16a16 16 0 0 1-32 0z" fill="#FD8F07" /><path d="M384 112V96a16 16 0 0 1 32 0v16a16 16 0 0 1-32 0zM448 160h-16a16 16 0 0 1 0-32h16a16 16 0 0 1 0 32zM368 160h-16a16 16 0 0 1 0-32h16a16 16 0 0 1 0 32zM384 192v-16a16 16 0 0 1 32 0v16a16 16 0 0 1-32 0z" fill="#FED370" /><path d="M736 761.76A272 272 0 0 0 512 336a16 16 0 0 1 0-32 304 304 0 0 1 250.4 476A16 16 0 0 1 736 761.76zM402.88 891.68c-36.32 17.76-106.88-25.92-101.92-64.96a304 304 0 0 1-89.6-263.68 16 16 0 0 1 7.04-10.88 48 48 0 0 0 17.6-58.88 16 16 0 0 1 0-13.12 304 304 0 0 1 225.28-172 16 16 0 0 1 5.44 32 272 272 0 0 0-198.56 147.84 80 80 0 0 1-26.08 86.72 271.04 271.04 0 0 0 42.56 182.72c35.84 54.72 60.64 53.92 48 74.08a46.88 46.88 0 0 0 23.2 23.68 45.12 45.12 0 0 0 32.8 8.16 15.04 15.04 0 0 1 18.08-4.16 272 272 0 0 0 291.36-52.96A16 16 0 0 1 720 829.28a304 304 0 0 1-317.12 62.4z" fill="#35214C" /><path d="M528 400h-32a16 16 0 0 1 0-32h32a16 16 0 0 1 0 32z" fill="#35214C" /><path d="M480 528m-48 0a48 48 0 1 0 96 0 48 48 0 1 0-96 0Z" fill="#6163AA" /><path d="M368 752a48 40 90 1 0 80 0 48 40 90 1 0-80 0Z" fill="#6163AA" /><path d="M320 640m-32 0a32 32 0 1 0 64 0 32 32 0 1 0-64 0Z" fill="#6163AA" /><path d="M480 592a16 16 0 0 1 0-32 32 32 0 1 0-32-32 16 16 0 0 1-16 16c-33.6 0-12.96-80 48-80a64 64 0 0 1 0 128zM320 688a48 48 0 1 1 48-48 48 48 0 0 1-48 48z m0-64a16 16 0 0 0 0 32 16 16 0 0 0 0-32zM409.92 808.96a57.12 57.12 0 0 1-40.32-97.28c39.2-39.04 103.52 0 80 22.72a16 16 0 0 1-22.72 0 24.96 24.96 0 1 0 0 35.2 16 16 0 0 1 22.72 22.72 57.28 57.28 0 0 1-39.68 16.64z" fill="#35214C" /></svg>