<?xml version="1.0" standalone="no"?><!DOCTYPE svg PUBLIC "-//W3C//DTD SVG 1.1//EN" "http://www.w3.org/Graphics/SVG/1.1/DTD/svg11.dtd"><svg class="icon" width="200px" height="200.00px" viewBox="0 0 1024 1024" version="1.1" xmlns="http://www.w3.org/2000/svg"><path d="M367.04 300.96a256 256 0 0 0-75.68 81.12 96 96 0 1 1 75.68-81.12z" fill="#FD7504" /><path d="M184.48 327.52a96 96 0 0 1 127.04-127.04 96 96 0 0 1-127.04 127.04z" fill="#FD8F07" /><path d="M768 512a256 256 0 0 1-388.96 218.72c13.12-4.32 26.72-9.12 40.48-14.56A256 256 0 0 0 701.44 560c73.12-54.24 66.56-60 66.56-48z" fill="#FDA736" /><path d="M701.44 560a256 256 0 0 1-281.92 156.32A1244.32 1244.32 0 0 0 701.44 560z" fill="#FED370" /><path d="M768 506.4a1212.8 1212.8 0 0 1-388.8 224c-265.6 90.08-336-24.48-123.2-212.8a254.08 254.08 0 0 0 12.32 73.44c-145.28 144 38.24 131.84 283.52-9.76 256-147.84 340.8-295.04 149.92-240a247.52 247.52 0 0 0-57.12-48c265.92-89.6 336.16 24.8 123.36 213.12z" fill="#898EC9" /><path d="M720 465.28a256.96 256.96 0 0 0-51.36-155.52 256 256 0 0 1 86.72 123.2c-10.4 10.4-22.24 21.28-35.36 32.32z" fill="#FDA736" /><path d="M720 464c0 6.4-182.72 152.96-397.92 219.2C122.88 461.92 398.88 141.92 644.8 293.28c22.24 13.6 22.24 16 23.84 16A256 256 0 0 1 720 464z" fill="#FED370" /><path d="M768 840a56 56 0 1 1-56-56 56 56 0 0 1 56 56z" fill="#6163AA" /><path d="M659.84 860.16a56 56 0 0 1 72.32-72.32 56 56 0 0 1-72.32 72.32z" fill="#898EC9" /><path d="M257.92 709.76C197.28 709.76 208 672 228.64 672c10.4 0 11.2 11.52 59.2 3.04 128-23.68 353.92-150.72 456.16-253.12 44.64-44 48-65.12 45.12-69.6-7.36-12.8-59.52-1.92-76.48 2.56-6.08 1.28-15.04 5.44-22.72-3.2-40.48-45.6-63.2-40.48-60.96-59.84a16 16 0 0 1 10.72-13.44c311.68-105.28 375.84 69.92 69.92 295.52a16 16 0 0 1-18.88-25.6c236.16-174.56 262.72-328.48-10.08-249.28a272 272 0 0 1 26.56 24.16c35.52-8.96 91.52-18.4 109.76 13.12C872.64 432 419.2 709.6 257.92 709.76z" fill="#35214C" /><path d="M222.72 777.28c-144 0-149.44-119.36 22.88-272a16 16 0 0 1 16.96-2.72c17.76 7.84 2.08 24.48 21.12 83.2 4.96 16-9.92 17.6-33.6 50.24A16 16 0 0 1 224 617.44c35.68-49.12 26.88-9.92 18.72-65.92-270.56 260 73.12 246.72 396.32 32a16 16 0 0 1 17.6 26.56C540.96 688 355.52 777.28 222.72 777.28z" fill="#35214C" /><path d="M236.96 673.92c11.36 6.72 38.08 3.04 50.88 0.8s-1.44 0-25.28-54.08a190.24 190.24 0 0 0-12.48 16 16 16 0 0 1-26.08-19.2 332.8 332.8 0 0 1 32.96-37.76 16 16 0 0 1 27.2 8.32 241.92 241.92 0 0 0 27.04 55.52c20.16 30.24 29.92 31.04 26.08 44.16a16 16 0 0 1-11.2 11.04C177.28 739.2 208 656 236.96 673.92zM755.36 448.96c-23.68 0-8.96-32-59.84-91.36-4.32-5.28-11.84-10.4-9.12-20.8s9.76-11.52 18.88-13.44c118.24-30.72 160 23.52 61.28 120.96a16 16 0 0 1-11.2 4.64z m-24.8-98.56a276.16 276.16 0 0 1 30.88 52.96c28-32 29.92-48 27.68-51.36-5.12-10.24-44.8-4.48-58.56-1.6z" fill="#35214C" /><path d="M236.96 673.92c11.36 6.72 38.08 3.04 50.88 0.8s-1.44 0-25.28-54.08a190.24 190.24 0 0 0-12.48 16 16 16 0 0 1-26.08-19.2 332.8 332.8 0 0 1 32.96-37.76 16 16 0 0 1 27.2 8.32 241.92 241.92 0 0 0 27.04 55.52c20.16 30.24 29.92 31.04 26.08 44.16a16 16 0 0 1-11.2 11.04C177.28 739.2 208 656 236.96 673.92zM755.36 448.96c-23.68 0-8.96-32-59.84-91.36-4.32-5.28-11.84-10.4-9.12-20.8s9.76-11.52 18.88-13.44c118.24-30.72 160 23.52 61.28 120.96a16 16 0 0 1-11.2 4.64z m-24.8-98.56a276.16 276.16 0 0 1 30.88 52.96c28-32 29.92-48 27.68-51.36-5.12-10.24-44.8-4.48-58.56-1.6z" fill="#35214C" /><path d="M272 576a16 16 0 0 1-11.36-27.36l128-128a16 16 0 0 1 22.72 22.72C273.12 581.44 281.44 576 272 576zM528 784a16 16 0 0 1-11.36-27.36l72-72a16 16 0 0 1 22.72 22.72C537.44 781.12 537.44 784 528 784zM448 560a16 16 0 0 1-11.36-27.36l224-224a16 16 0 0 1 22.72 22.72C438.56 576 457.44 560 448 560zM488 360a16 16 0 0 1-11.36-27.36l40-40a16 16 0 0 1 22.72 22.72c-43.36 43.2-42.56 44.64-51.36 44.64z" fill="#FD8F07" /><path d="M322.08 699.2a16 16 0 0 1-11.84-5.12 272 272 0 0 1 134.88-445.76 16 16 0 0 1 7.68 31.04 240 240 0 0 0-125.28 385.76c128-37.44 314.24-145.28 409.44-236.64A240 240 0 0 0 512 272a16 16 0 0 1 0-32 272 272 0 0 1 258.72 188.32 16 16 0 0 1-4 16C633.44 577.44 368 699.2 322.08 699.2z" fill="#35214C" /><path d="M216.16 368a16 16 0 0 1 21.44-7.36 81.92 81.92 0 0 0 44 7.36 272 272 0 0 1 70.4-75.84 80 80 0 1 0-152 30.24 16 16 0 0 1-8 21.44c-22.72 11.04-32-30.72-32-55.84a112 112 0 0 1 112-112c103.52 0 128 121.44 104.16 138.08a242.88 242.88 0 0 0-71.04 76.16c-11.36 19.2-104.48 9.76-88.96-22.24zM712 912a72 72 0 0 1-70.4-87.04 16 16 0 0 1 32 6.72 40 40 0 1 0 30.4-30.72 16 16 0 0 1-6.72-32A72 72 0 1 1 712 912zM370.72 744.32a16 16 0 0 1-7.52-16c3.2-28 75.2-12 276-145.28a16 16 0 0 1 17.6 26.56 1237.28 1237.28 0 0 1-237.44 123.2 240 240 0 0 0 330.72-190.4c-12.8 10.4-26.4 20.8-40.48 32a16 16 0 0 1-18.88-25.6c71.2-52.64 68.32-62.4 83.04-56.48 10.24 3.68 10.24 12.32 10.24 19.68a272 272 0 0 1-413.28 232.32z" fill="#35214C" /></svg>