<?xml version="1.0" standalone="no"?><!DOCTYPE svg PUBLIC "-//W3C//DTD SVG 1.1//EN" "http://www.w3.org/Graphics/SVG/1.1/DTD/svg11.dtd"><svg class="icon" width="200px" height="200.00px" viewBox="0 0 1024 1024" version="1.1" xmlns="http://www.w3.org/2000/svg"><path d="M944 600a39.84 39.84 0 0 1-40 40h-784a40 40 0 0 1 0-80h784a40 40 0 0 1 40 40z" fill="#C5EE09" /><path d="M896 558.24c0 2.72 59.04 1.76-768 1.76a62.24 62.24 0 0 1 62.24-64h643.52A62.24 62.24 0 0 1 896 558.24z" fill="#6163AA" /><path d="M832 496H192c0-301.12 314.08-420.8 512-272 82.4 61.76 128 152 128 272z" fill="#2DE0C7" /><path d="M593.76 432H195.52A320 320 0 0 1 704 224c63.04 84-1.76 208-110.24 208z" fill="#93E6D9" /><path d="M608 784a96 96 0 0 1-192 0z" fill="#FD7504" /><path d="M832 640a144 144 0 0 1-144 144H336a144 144 0 0 1-144-144z" fill="#69CC00" /><path d="M848 752c0 107.36-151.2 133.28-186.4 32 38.88 0 88 2.4 133.12-48a141.12 141.12 0 0 0 28.96-48A94.56 94.56 0 0 1 848 752zM362.4 784C327.2 885.28 176 859.36 176 752a94.56 94.56 0 0 1 24.32-64 141.12 141.12 0 0 0 28.96 48c42.72 48 90.72 48 133.12 48z" fill="#FD7504" /><path d="M904 656h-784a56 56 0 0 1 0-112H464a16 16 0 0 1 0 32H120a24 24 0 0 0 0 48h784a24 24 0 0 0 0-48H528a16 16 0 0 1 0-32h376a56 56 0 0 1 0 112z" fill="#35214C" /><path d="M896 576H528a16 16 0 0 1 0-32h349.76a46.4 46.4 0 0 0-44-32H190.24a46.4 46.4 0 0 0-44 32H464a16 16 0 0 1 0 32H128c-36 0-11.52-96 62.24-96h643.52c74.08 0 97.6 96 62.24 96z" fill="#35214C" /><path d="M832 512H192a16 16 0 0 1 0-32h640a16 16 0 0 1 0 32z" fill="#35214C" /><path d="M832 512H192a16 16 0 0 1-16-16 341.76 341.76 0 0 1 37.28-169.92 16 16 0 0 1 30.4 7.36c0 10.72-35.68 58.24-35.68 146.56h608v-15.04a16 16 0 0 1 32-1.92V496a16 16 0 0 1-16 16zM806.72 405.44C746.56 165.28 432 92.16 274.24 290.56a16 16 0 0 1-24.96-19.84C423.84 51.2 771.2 132.32 837.76 397.76a16 16 0 0 1-31.04 7.68z" fill="#35214C" /><path d="M747.84 435.04a242.56 242.56 0 0 0-146.4-177.76 16 16 0 0 1 12-29.6A274.4 274.4 0 0 1 779.2 428.96a16 16 0 0 1-31.36 6.08zM544 242.08a293.12 293.12 0 0 0-32-2.08 16 16 0 0 1 0-32 268.8 268.8 0 0 1 34.08 2.08 16 16 0 0 1-2.08 32z" fill="#FEF5E3" /><path d="M512 896c-102.4 0-136.32-128-96-128h192c40.96 0 5.44 128-96 128z m-78.4-96a80 80 0 0 0 156.8 0z" fill="#35214C" /><path d="M688 800H336a16 16 0 0 1 0-32h352a128 128 0 0 0 127.04-112H208.96a128 128 0 0 0 72.8 99.84 16 16 0 0 1-13.44 29.12A160 160 0 0 1 176 640a16 16 0 0 1 16-16h640a16 16 0 0 1 16 16 160 160 0 0 1-160 160z" fill="#35214C" /><path d="M752 864c-71.52 0-117.28-69.76-103.52-89.28 6.56-8.96 16-6.72 39.52-6.72a128 128 0 0 0 120.64-84.96 16 16 0 0 1 26.88-5.44A112 112 0 0 1 852.96 800a16 16 0 0 1-28.8-14.08 80 80 0 0 0 1.76-65.12A160 160 0 0 1 688 800c-4.32 0 42.72 51.2 98.4 24.16a16 16 0 0 1 21.44 7.36C818.88 854.24 777.12 864 752 864zM272 864a112 112 0 0 1-83.52-186.4 16 16 0 0 1 26.88 5.44 128 128 0 0 0 66.4 72.8 16 16 0 0 1-13.44 29.12 161.28 161.28 0 0 1-70.24-64A80 80 0 0 0 272 832a81.28 81.28 0 0 0 64-32 16 16 0 0 1 0-32c28.32 0 33.6-1.6 39.52 6.72C389.28 794.24 343.68 864 272 864z" fill="#35214C" /></svg>