<?xml version="1.0" standalone="no"?><!DOCTYPE svg PUBLIC "-//W3C//DTD SVG 1.1//EN" "http://www.w3.org/Graphics/SVG/1.1/DTD/svg11.dtd"><svg class="icon" width="200px" height="200.00px" viewBox="0 0 1024 1024" version="1.1" xmlns="http://www.w3.org/2000/svg"><path d="M791.36 599.68a304 304 0 1 1-558.88-224 304 304 0 0 0 558.88 224z" fill="#FDA736" /><path d="M792 597.28a13.28 13.28 0 0 1 0 2.4 304 304 0 0 1-558.88-224c46.08-80 129.76-133.6 194.24-144A264 264 0 0 0 792 597.28z" fill="#FED370" /><path d="M573.12 645.76a280.32 280.32 0 0 1-179.36-387.04A288 288 0 0 0 209.6 497.76a16 16 0 0 1-32-3.2 319.04 319.04 0 0 1 245.44-278.08 16 16 0 0 1 17.12 24.32 248.32 248.32 0 0 0 141.6 374.24 16 16 0 0 1-8.64 30.72z" fill="#35214C" /><path d="M496 848a318.72 318.72 0 0 1-318.08-286.56 16 16 0 1 1 32-3.2 288 288 0 0 0 555.68 72A277.28 277.28 0 0 1 639.04 656a16 16 0 0 1 1.92-32A246.08 246.08 0 0 0 784 583.84a16 16 0 0 1 24.32 17.12A318.4 318.4 0 0 1 496 848z" fill="#35214C" /><path d="M144 336a16 16 0 0 0-16-16 16 16 0 0 1 0-32 16 16 0 0 0 16-16 16 16 0 0 1 32 0 16 16 0 0 0 16 16 16 16 0 0 1 0 32 16 16 0 0 0-16 16 16 16 0 0 1-32 0z" fill="#FED370" /><path d="M800 272a16 16 0 0 0-16-16 16 16 0 0 1 0-32 16 16 0 0 0 16-16 16 16 0 0 1 32 0 16 16 0 0 0 16 16 16 16 0 0 1 0 32 16 16 0 0 0-16 16 16 16 0 0 1-32 0z" fill="#FD8F07" /><path d="M251.36 859.36A16 16 0 0 1 224 848a16 16 0 0 0-16-16 16 16 0 0 1 0-32 16 16 0 0 0 16-16 16 16 0 0 1 32 0 16 16 0 0 0 16 16 16 16 0 0 1 0 32 16 16 0 0 0-16 16 16 16 0 0 1-4.64 11.36" fill="#FDA736" /><path d="M128 624a16 16 0 0 1-32 0 16 16 0 0 1 32 0z" fill="#FD8F07" /><path d="M928 416a16 16 0 0 1-32 0 16 16 0 0 1 32 0z" fill="#FED370" /><path d="M144 416a16 16 0 0 1-32 0 16 16 0 0 1 32 0zM720 352a16 16 0 0 1-32 0 16 16 0 0 1 32 0z" fill="#FDA736" /><path d="M528 928a16 16 0 0 1-32 0 16 16 0 0 1 32 0z" fill="#FED370" /><path d="M832 512a16 16 0 0 1-32 0 16 16 0 0 1 32 0zM528 288a16 16 0 0 1-32 0 16 16 0 0 1 32 0z" fill="#FD8F07" /><path d="M720 160a16 16 0 0 1-32 0 16 16 0 0 1 32 0zM896 688a16 16 0 0 1-32 0 16 16 0 0 1 32 0z" fill="#FDA736" /><path d="M336 176a16 16 0 0 1-32 0 16 16 0 0 1 32 0zM768 768v-16a16 16 0 0 1 32 0v16a16 16 0 0 1-32 0zM832 816h-16a16 16 0 0 1 0-32h16a16 16 0 0 1 0 32zM752 816h-16a16 16 0 0 1 0-32h16a16 16 0 0 1 0 32zM768 848v-16a16 16 0 0 1 32 0v16a16 16 0 0 1-32 0z" fill="#FD8F07" /><path d="M544 432v-16a16 16 0 0 1 32 0v16a16 16 0 0 1-32 0zM608 480h-16a16 16 0 0 1 0-32h16a16 16 0 0 1 0 32zM528 480h-16a16 16 0 0 1 0-32h16a16 16 0 0 1 0 32zM544 512v-16a16 16 0 0 1 32 0v16a16 16 0 0 1-32 0z" fill="#FED370" /><path d="M496 96V80a16 16 0 0 1 32 0v16a16 16 0 0 1-32 0zM560 144h-16a16 16 0 0 1 0-32h16a16 16 0 0 1 0 32zM480 144h-16a16 16 0 0 1 0-32h16a16 16 0 0 1 0 32zM496 176v-16a16 16 0 0 1 32 0v16a16 16 0 0 1-32 0z" fill="#FDA736" /></svg>